<svg width="32" height="32" viewBox="0 0 32 32" fill="none" xmlns="http://www.w3.org/2000/svg">
<path d="M24 2.66667C26.9413 2.66667 29.3333 5.05867 29.3333 8V24C29.3333 26.9413 26.9413 29.3333 24 29.3333H8C5.05867 29.3333 2.66667 26.9413 2.66667 24V8C2.66667 5.05867 5.05867 2.66667 8 2.66667H24ZM24 0H8C3.58133 0 0 3.58133 0 8V24C0 28.4187 3.58133 32 8 32H24C28.4187 32 32 28.4187 32 24V8C32 3.58133 28.4187 0 24 0Z" fill="white"/>
<path d="M24 2.66667C26.9413 2.66667 29.3333 5.05867 29.3333 8V24C29.3333 26.9413 26.9413 29.3333 24 29.3333H8C5.05867 29.3333 2.66667 26.9413 2.66667 24V8C2.66667 5.05867 5.05867 2.66667 8 2.66667H24Z" fill="white"/>
</svg>
