<svg width="26" height="24" viewBox="0 0 26 24" fill="none" xmlns="http://www.w3.org/2000/svg">
<path d="M19.5 10.6667H18.2C17.8552 10.6667 17.5246 10.8071 17.2808 11.0572C17.037 11.3072 16.9 11.6464 16.9 12C16.9 12.3536 17.037 12.6928 17.2808 12.9428C17.5246 13.1929 17.8552 13.3333 18.2 13.3333H19.5C19.8448 13.3333 20.1754 13.1929 20.4192 12.9428C20.663 12.6928 20.8 12.3536 20.8 12C20.8 11.6464 20.663 11.3072 20.4192 11.0572C20.1754 10.8071 19.8448 10.6667 19.5 10.6667ZM19.5 16H18.2C17.8552 16 17.5246 16.1405 17.2808 16.3905C17.037 16.6406 16.9 16.9797 16.9 17.3333C16.9 17.687 17.037 18.0261 17.2808 18.2761C17.5246 18.5262 17.8552 18.6667 18.2 18.6667H19.5C19.8448 18.6667 20.1754 18.5262 20.4192 18.2761C20.663 18.0261 20.8 17.687 20.8 17.3333C20.8 16.9797 20.663 16.6406 20.4192 16.3905C20.1754 16.1405 19.8448 16 19.5 16ZM11.7 8H19.5C19.8448 8 20.1754 7.85952 20.4192 7.60948C20.663 7.35943 20.8 7.02029 20.8 6.66667C20.8 6.31305 20.663 5.97391 20.4192 5.72386C20.1754 5.47381 19.8448 5.33333 19.5 5.33333H11.7C11.3552 5.33333 11.0246 5.47381 10.7808 5.72386C10.537 5.97391 10.4 6.31305 10.4 6.66667C10.4 7.02029 10.537 7.35943 10.7808 7.60948C11.0246 7.85952 11.3552 8 11.7 8ZM24.7 0H6.5C6.15522 0 5.82456 0.140476 5.58076 0.390524C5.33696 0.640573 5.2 0.979711 5.2 1.33333V5.33333H1.3C0.955219 5.33333 0.624558 5.47381 0.380761 5.72386C0.136964 5.97391 0 6.31305 0 6.66667V20C0 21.0609 0.410892 22.0783 1.14228 22.8284C1.87368 23.5786 2.86566 24 3.9 24H20.8C22.1791 24 23.5018 23.4381 24.477 22.4379C25.4521 21.4377 26 20.0812 26 18.6667V1.33333C26 0.979711 25.863 0.640573 25.6192 0.390524C25.3754 0.140476 25.0448 0 24.7 0ZM5.2 20C5.2 20.3536 5.06304 20.6928 4.81924 20.9428C4.57544 21.1929 4.24478 21.3333 3.9 21.3333C3.55522 21.3333 3.22456 21.1929 2.98076 20.9428C2.73696 20.6928 2.6 20.3536 2.6 20V8H5.2V20ZM23.4 18.6667C23.4 19.3739 23.1261 20.0522 22.6385 20.5523C22.1509 21.0524 21.4896 21.3333 20.8 21.3333H7.566C7.71735 20.9058 7.79648 20.4549 7.8 20V2.66667H23.4V18.6667ZM11.7 13.3333H13C13.3448 13.3333 13.6754 13.1929 13.9192 12.9428C14.163 12.6928 14.3 12.3536 14.3 12C14.3 11.6464 14.163 11.3072 13.9192 11.0572C13.6754 10.8071 13.3448 10.6667 13 10.6667H11.7C11.3552 10.6667 11.0246 10.8071 10.7808 11.0572C10.537 11.3072 10.4 11.6464 10.4 12C10.4 12.3536 10.537 12.6928 10.7808 12.9428C11.0246 13.1929 11.3552 13.3333 11.7 13.3333ZM11.7 18.6667H13C13.3448 18.6667 13.6754 18.5262 13.9192 18.2761C14.163 18.0261 14.3 17.687 14.3 17.3333C14.3 16.9797 14.163 16.6406 13.9192 16.3905C13.6754 16.1405 13.3448 16 13 16H11.7C11.3552 16 11.0246 16.1405 10.7808 16.3905C10.537 16.6406 10.4 16.9797 10.4 17.3333C10.4 17.687 10.537 18.0261 10.7808 18.2761C11.0246 18.5262 11.3552 18.6667 11.7 18.6667Z" fill="white"/>
</svg>
