<svg width="22" height="22" viewBox="0 0 22 22" fill="none" xmlns="http://www.w3.org/2000/svg">
<path d="M21.0192 21.9417H13.8726C13.3588 21.9417 12.9385 21.5213 12.9385 21.0075V16.5701C12.9385 15.4491 12.051 14.5616 10.93 14.5616C9.80894 14.5616 8.92146 15.4491 8.92146 16.5701V21.0075C8.92146 21.5213 8.50108 21.9417 7.98728 21.9417H0.934185C0.420383 21.9417 0 21.5213 0 21.0075V9.04991C0 8.20915 0.420383 7.41509 1.07431 6.948L10.4629 0.17516C10.7898 -0.0583865 11.2102 -0.0583865 11.5372 0.17516L20.9257 6.948C21.5797 7.41509 22 8.20915 22 9.04991V21.0542C21.9533 21.5213 21.533 21.9417 21.0192 21.9417ZM14.8068 20.12H20.1317V9.04991C20.1317 8.81637 19.9916 8.58282 19.8047 8.44269L10.9767 2.04353L2.14862 8.39598C1.96179 8.53611 1.82166 8.76966 1.82166 9.00321V20.0733H7.14651V16.5701C7.14651 14.4682 8.87476 12.7399 10.9767 12.7399C13.0786 12.7399 14.8068 14.4682 14.8068 16.5701V20.12Z" fill="white"/>
</svg>
