<svg width="24" height="24" viewBox="0 0 24 24" fill="none" xmlns="http://www.w3.org/2000/svg">
<path d="M23.9423 23.0162L19.7073 13.1354C19.5959 12.876 19.3407 12.7077 19.0585 12.7077H16.3689C17.4575 10.806 18.3527 8.70117 18.3527 6.92028C18.3527 -2.25074 5.64734 -2.36262 5.64734 6.92028C5.64734 8.70117 6.54254 10.806 7.6311 12.7077H4.94147C4.65912 12.7077 4.40387 12.876 4.29272 13.1354L0.0576758 23.0162C-0.141543 23.4809 0.199766 24 0.706418 24H23.2936C23.7991 24 24.1419 23.482 23.9423 23.0162ZM18.5929 14.1193L20.6827 18.9946C20.6173 19.0287 13.8157 22.5606 13.767 22.5884H12.2895C12.2521 22.5467 12.5696 22.8658 7.9693 18.266L10.5245 16.9583C11.0455 17.6232 11.4104 18.0456 11.4673 18.1111C11.7486 18.4349 12.2516 18.4343 12.5325 18.1111C12.6506 17.9753 14.0894 16.3081 15.5068 14.1193H18.5929ZM12 1.41522C14.3796 1.41522 16.9409 3.13806 16.9409 6.92028C16.9409 10.1005 13.376 14.8332 12 16.5412C10.624 14.833 7.05908 10.1005 7.05908 6.92028C7.05908 3.11755 9.54053 1.41522 12 1.41522ZM5.40692 14.1193C8.82623 14.1193 8.43768 14.1198 8.49243 14.1182C8.88995 14.7321 9.28912 15.305 9.66046 15.8148L3.2807 19.08L5.40692 14.1193ZM2.41003 21.1113L6.64892 18.9419L10.296 22.5884H1.77685L2.41003 21.1113ZM16.8263 22.5884L21.2404 20.2956L22.2231 22.5884H16.8263Z" fill="white"/>
<path d="M14.1174 6.35565C14.1174 5.18817 13.1674 4.23822 11.9999 4.23822C10.8323 4.23822 9.8823 5.18817 9.8823 6.35565C9.8823 7.52313 10.8323 8.4729 11.9999 8.4729C13.1674 8.4729 14.1174 7.52313 14.1174 6.35565ZM11.294 6.35565C11.294 5.96637 11.6106 5.64978 11.9999 5.64978C12.389 5.64978 12.7058 5.96637 12.7058 6.35565C12.7058 6.74475 12.389 7.06134 11.9999 7.06134C11.6106 7.06134 11.294 6.74475 11.294 6.35565Z" fill="white"/>
</svg>
