<svg width="25" height="26" viewBox="0 0 25 26" fill="none" xmlns="http://www.w3.org/2000/svg">
<path d="M19.234 19.6667C17.7954 19.6667 16.6292 20.8606 16.6292 22.3333C16.6292 23.8061 17.7954 25 19.234 25C20.6727 25 21.8389 23.8061 21.8389 22.3333C21.8389 20.8606 20.6727 19.6667 19.234 19.6667ZM19.234 19.6667H9.19743C8.59693 19.6667 8.29613 19.6667 8.0489 19.5573C7.8308 19.4608 7.64159 19.3055 7.50374 19.1074C7.34922 18.8853 7.28708 18.5884 7.16407 18.0007L3.95845 2.6862C3.83258 2.08485 3.7688 1.7845 3.61249 1.5599C3.47464 1.3618 3.28546 1.20588 3.06737 1.1094C2.82009 1 2.52096 1 1.92021 1H1M4.90729 5H21.6738C22.6138 5 23.0834 5 23.3989 5.20048C23.6753 5.37608 23.8776 5.65149 23.9658 5.97201C24.0665 6.33791 23.9371 6.79995 23.6766 7.72461L21.8732 14.1246C21.7175 14.6775 21.6395 14.9534 21.4815 15.1585C21.342 15.3396 21.158 15.4813 20.9494 15.5684C20.7138 15.6667 20.4337 15.6667 19.875 15.6667H7.16111M7.51215 25C6.07353 25 4.90729 23.8061 4.90729 22.3333C4.90729 20.8606 6.07353 19.6667 7.51215 19.6667C8.95078 19.6667 10.117 20.8606 10.117 22.3333C10.117 23.8061 8.95078 25 7.51215 25Z" stroke="white" stroke-width="2" stroke-linecap="round" stroke-linejoin="round"/>
</svg>
