<svg width="23" height="26" viewBox="0 0 23 26" fill="none" xmlns="http://www.w3.org/2000/svg">
<path d="M2.89523 7.47196C-0.657193 13.2621 -0.983242 19.3049 2.15318 21.2292L8.1765 24.9247C11.3129 26.8489 16.5523 23.8206 20.1047 18.0305C23.6571 12.2404 23.9832 6.19758 20.8467 4.27328L14.8234 0.577796C11.687 -1.3465 6.44765 1.68183 2.89523 7.47196ZM4.61617 8.52781C7.72725 3.45704 11.9365 1.17532 13.7676 2.29874C15.5987 3.42217 15.4715 8.20838 12.3604 13.2792C9.24937 18.3499 5.04013 20.6316 3.20904 19.5082C1.37795 18.3848 1.5051 13.5986 4.61617 8.52781ZM10.9453 18.3328L15.1969 20.9412C14.632 21.47 14.0682 21.914 13.5189 22.2805L9.35763 19.7274C9.89271 19.3167 10.4235 18.8512 10.9453 18.3328ZM12.3212 16.8082C12.7376 16.2974 13.1426 15.7571 13.5311 15.1818L17.8343 17.8219C17.438 18.4042 17.0285 18.9442 16.6115 19.4404L12.3212 16.8082ZM14.5869 13.4608C14.9247 12.8544 15.2229 12.2485 15.4888 11.6454L19.7791 14.2776C19.5256 14.8742 19.2297 15.4838 18.8902 16.101L14.5869 13.4608ZM16.2254 9.72855C16.4512 9.02853 16.6257 8.34446 16.7495 7.68134L20.9107 10.2344C20.8329 10.8902 20.6925 11.594 20.477 12.337L16.2254 9.72855ZM9.23322 23.2042L6.3403 21.4293C6.71088 21.3002 7.08743 21.1285 7.4654 20.9353L11.3599 23.3246C10.5078 23.561 9.76671 23.5315 9.23235 23.2037L9.23322 23.2042ZM20.8634 7.83665L16.9689 5.44725C16.9692 5.0222 16.9516 4.60874 16.8997 4.2204L19.7926 5.99529C20.327 6.32313 20.6873 6.96938 20.8634 7.83665Z" fill="white"/>
</svg>
